<svg width="44" height="45" viewBox="0 0 44 45" fill="none" xmlns="http://www.w3.org/2000/svg">
<path d="M17.0233 24.6901C18.7431 24.6901 20.1214 26.0818 20.1214 27.8138V31.9718C20.1214 33.6917 18.7431 35.0943 17.0233 35.0943H12.9006C11.193 35.0943 9.80249 33.6917 9.80249 31.9718V27.8138C9.80249 26.0818 11.193 24.6901 12.9006 24.6901H17.0233ZM31.099 24.6901C32.8066 24.6901 34.1971 26.0818 34.1971 27.8138V31.9718C34.1971 33.6917 32.8066 35.0943 31.099 35.0943H26.9763C25.2565 35.0943 23.8782 33.6917 23.8782 31.9718V27.8138C23.8782 26.0818 25.2565 24.6901 26.9763 24.6901H31.099ZM17.0233 10.7002C18.7431 10.7002 20.1214 12.1029 20.1214 13.8239V17.982C20.1214 19.714 18.7431 21.1045 17.0233 21.1045H12.9006C11.193 21.1045 9.80249 19.714 9.80249 17.982V13.8239C9.80249 12.1029 11.193 10.7002 12.9006 10.7002H17.0233ZM31.099 10.7002C32.8066 10.7002 34.1971 12.1029 34.1971 13.8239V17.982C34.1971 19.714 32.8066 21.1045 31.099 21.1045H26.9763C25.2565 21.1045 23.8782 19.714 23.8782 17.982V13.8239C23.8782 12.1029 25.2565 10.7002 26.9763 10.7002H31.099Z" fill="#B7B7B7"/>
</svg>
