<svg width="44" height="45" viewBox="0 0 44 45" fill="none" xmlns="http://www.w3.org/2000/svg">
<path d="M22.006 10.2471C25.2748 10.2471 27.9622 12.8157 28.0986 16.0704H28.0667C28.0706 16.165 28.0524 16.2593 28.0136 16.3457H28.2041C29.6885 16.3457 31.2429 17.3745 31.8662 19.8583L31.9339 20.1513L32.8717 27.7071C33.5466 32.5263 30.91 34.5529 27.3134 34.6387L27.0722 34.6416H16.9607C13.3055 34.6416 10.4889 33.3096 11.1082 28.035L11.1504 27.7071L12.099 20.1513C12.5668 17.4766 14.1372 16.4216 15.6502 16.3497L15.8181 16.3457H15.9134C15.8973 16.2546 15.8973 16.1615 15.9134 16.0704C16.0498 12.8157 18.7372 10.2471 22.006 10.2471ZM18.4591 20.4065C17.8638 20.4065 17.3811 20.9033 17.3811 21.516C17.3811 22.1288 17.8638 22.6255 18.4591 22.6255C19.0545 22.6255 19.5371 22.1288 19.5371 21.516L19.5287 21.3769C19.4622 20.8298 19.0087 20.4065 18.4591 20.4065ZM25.5199 20.4065C24.9245 20.4065 24.4419 20.9033 24.4419 21.516C24.4419 22.1288 24.9245 22.6255 25.5199 22.6255C26.1152 22.6255 26.5979 22.1288 26.5979 21.516C26.5979 20.9033 26.1152 20.4065 25.5199 20.4065ZM21.9582 11.8356C19.6113 11.8356 17.7088 13.7316 17.7088 16.0704C17.7249 16.1615 17.7249 16.2546 17.7088 16.3457H26.2607C26.2268 16.2578 26.2088 16.1646 26.2076 16.0704C26.2076 13.7316 24.3051 11.8356 21.9582 11.8356Z" fill="#B7B7B7"/>
</svg>
