<svg width="44" height="45" viewBox="0 0 44 45" fill="none" xmlns="http://www.w3.org/2000/svg">
<path d="M27.6904 10.5258C29.445 10.4161 31.1752 11.0254 32.479 12.2195C33.6731 13.5232 34.2823 15.2534 34.1848 17.0202V28.4007C34.2945 30.1674 33.6731 31.8977 32.4912 33.2014C31.1874 34.3955 29.445 35.0047 27.6904 34.8951H16.3098C14.543 35.0047 12.8128 34.3955 11.509 33.2014C10.3149 31.8977 9.70568 30.1674 9.81534 28.4007V17.0202C9.70568 15.2534 10.3149 13.5232 11.509 12.2195C12.8128 11.0254 14.543 10.4161 16.3098 10.5258H27.6904ZM27.3736 16.0942C26.6181 15.3387 25.3996 15.3387 24.6442 16.0942L23.8278 16.9227C23.706 17.0446 23.706 17.2517 23.8278 17.3736C23.8278 17.3736 23.8517 17.3973 23.8943 17.4396L24.194 17.7377C24.3674 17.9102 24.5838 18.1256 24.8011 18.3422L25.5379 19.0787C25.6916 19.2331 25.7936 19.3366 25.8017 19.3475C25.9358 19.4937 26.0211 19.6886 26.0211 19.908C26.0211 20.3466 25.6677 20.7122 25.2169 20.7122C25.0097 20.7122 24.8148 20.6269 24.6807 20.4928L22.6459 18.4702C22.5484 18.3727 22.3778 18.3727 22.2803 18.4702L16.4682 24.2823C16.0661 24.6844 15.8346 25.2205 15.8224 25.7932L15.7493 28.6809C15.7493 28.8393 15.7981 28.9855 15.9077 29.0952C16.0174 29.2049 16.1636 29.2658 16.322 29.2658H19.1854C19.7703 29.2658 20.3308 29.0343 20.7572 28.62L28.9576 20.3954C29.7008 19.6399 29.7008 18.4214 28.9576 17.6782L27.3736 16.0942Z" fill="#B7B7B7"/>
</svg>
