<svg width="60" height="45" viewBox="0 0 60 45" fill="none" xmlns="http://www.w3.org/2000/svg">
<rect x="0.726562" y="0.208496" width="58.5468" height="43.9101" rx="3.65918" fill="#E9F5FE"/>
<path d="M26.5052 32.8646V29.135C26.5052 28.183 27.2826 27.4112 28.2417 27.4112H31.7474C32.2079 27.4112 32.6496 27.5928 32.9753 27.9161C33.3009 28.2394 33.4839 28.6779 33.4839 29.135V32.8646C33.4809 33.2604 33.6373 33.641 33.9182 33.9219C34.1991 34.2028 34.5813 34.3608 34.9801 34.3608H37.3718C38.4888 34.3637 39.5611 33.9252 40.352 33.1421C41.1429 32.359 41.5874 31.2956 41.5874 30.1867V19.5617C41.5874 18.666 41.1874 17.8163 40.4953 17.2416L32.359 10.7907C30.9436 9.65962 28.9158 9.69614 27.5427 10.8774L19.5921 17.2416C18.8672 17.7993 18.434 18.6515 18.4126 19.5617V30.1759C18.4126 32.4871 20.3 34.3608 22.6282 34.3608H24.9653C25.7934 34.3608 26.4664 33.6975 26.4724 32.8755L26.5052 32.8646Z" fill="#0C7FDA"/>
</svg>
