<svg width="36" height="35" viewBox="0 0 36 35" fill="none" xmlns="http://www.w3.org/2000/svg">
<rect x="0.517822" y="0.273438" width="34.9641" height="34.0248" rx="7.31835" fill="#B7B7B7"/>
<path fill-rule="evenodd" clip-rule="evenodd" d="M13.3581 9.84258C12.8594 9.35096 12.8594 8.55388 13.3581 8.06226L17.0697 4.40338C17.5684 3.91176 18.377 3.91176 18.8757 4.40338L22.5873 8.06226C23.086 8.55388 23.086 9.35096 22.5873 9.84258L18.8757 13.5015C18.377 13.9931 17.5684 13.9931 17.0697 13.5015L13.3581 9.84258ZM17.2921 17.7419C17.0428 17.4961 17.0428 17.0975 17.2921 16.8517L17.5386 16.6087C17.788 16.3629 18.1923 16.3629 18.4416 16.6087L18.6881 16.8517C18.9375 17.0975 18.9375 17.4961 18.6881 17.7419L18.4416 17.9849C18.1923 18.2307 17.788 18.2307 17.5386 17.9849L17.2921 17.7419ZM22.1175 16.4254C21.6188 16.917 21.6188 17.7141 22.1175 18.2057L25.8291 21.8646C26.3278 22.3562 27.1363 22.3562 27.635 21.8646L31.3466 18.2057C31.8453 17.7141 31.8453 16.917 31.3466 16.4254L27.635 12.7665C27.1363 12.2749 26.3278 12.2749 25.8291 12.7665L22.1175 16.4254ZM4.65308 18.1963C4.15438 17.7047 4.15438 16.9076 4.65308 16.416L8.36468 12.7571C8.86338 12.2655 9.67194 12.2655 10.1706 12.7571L13.8822 16.416C14.3809 16.9076 14.3809 17.7047 13.8822 18.1963L10.1706 21.8552C9.67194 22.3468 8.86338 22.3468 8.36468 21.8552L4.65308 18.1963ZM13.3581 24.7291C12.8594 25.2207 12.8594 26.0178 13.3581 26.5094L17.0697 30.1683C17.5684 30.6599 18.377 30.6599 18.8757 30.1683L22.5873 26.5094C23.086 26.0178 23.086 25.2207 22.5873 24.7291L18.8757 21.0702C18.377 20.5786 17.5684 20.5786 17.0697 21.0702L13.3581 24.7291Z" fill="white"/>
</svg>
