<svg width="44" height="45" viewBox="0 0 44 45" fill="none" xmlns="http://www.w3.org/2000/svg">
<path d="M27.2861 10.0601C31.4201 10.0601 34.1972 12.9607 34.1972 17.2768V27.2378C34.1972 31.5539 31.4201 34.4546 27.2848 34.4546H16.7139C12.5799 34.4546 9.80273 31.5539 9.80273 27.2378V17.2768C9.80273 12.9607 12.5799 10.0601 16.7139 10.0601H27.2861ZM28.6311 22.9282C27.3237 22.1126 26.3142 23.258 26.0419 23.6243C25.7795 23.978 25.5538 24.3682 25.3158 24.7584C24.7345 25.7214 24.0685 26.8316 22.9155 27.4773C21.2401 28.405 19.9682 27.5503 19.0532 26.9285C18.7098 26.6969 18.3761 26.4779 18.0438 26.3319C17.2244 25.9782 16.4873 26.381 15.3932 27.7706C14.8192 28.4969 14.2501 29.2169 13.6736 29.9344C13.329 30.3636 13.4112 31.0257 13.876 31.3127C14.6181 31.7697 15.5232 32.0151 16.5462 32.0151H26.8257C27.4058 32.0151 27.9872 31.9358 28.5416 31.7546C29.7902 31.3467 30.7812 30.4127 31.2988 29.1792C31.7355 28.142 31.9477 26.8832 31.5392 25.8359C31.4031 25.4885 31.1995 25.165 30.9137 24.8805C30.1643 24.1366 29.4639 23.4418 28.6311 22.9282ZM17.7296 14.939C16.048 14.939 14.6816 16.3072 14.6816 17.9883C14.6816 19.6694 16.048 21.0376 17.7296 21.0376C19.4099 21.0376 20.7775 19.6694 20.7775 17.9883C20.7775 16.3072 19.4099 14.939 17.7296 14.939Z" fill="#B7B7B7"/>
</svg>
