<svg width="44" height="45" viewBox="0 0 44 45" fill="none" xmlns="http://www.w3.org/2000/svg">
<path d="M27.1119 10.6069C30.8796 10.6069 32.9775 12.778 32.9775 16.4982V29.098C32.9775 32.8791 30.8796 35.0014 27.1119 35.0014H16.8893C13.1814 35.0014 11.0225 32.8791 11.0225 29.098V16.4982C11.0225 12.778 13.1814 10.6069 16.8893 10.6069H27.1119ZM17.2187 27.366C16.8527 27.3294 16.499 27.5001 16.3039 27.8173C16.1087 28.1222 16.1087 28.5247 16.3039 28.8418C16.499 29.1468 16.8527 29.3297 17.2187 29.2809H26.7813C27.268 29.2321 27.6351 28.8162 27.6351 28.3295C27.6351 27.8295 27.268 27.4147 26.7813 27.366H17.2187ZM26.7813 21.8028H17.2187C16.693 21.8028 16.2673 22.2309 16.2673 22.7554C16.2673 23.2799 16.693 23.7068 17.2187 23.7068H26.7813C27.3058 23.7068 27.7327 23.2799 27.7327 22.7554C27.7327 22.2309 27.3058 21.8028 26.7813 21.8028ZM20.8644 16.2787H17.2187V16.2909C16.693 16.2909 16.2673 16.7178 16.2673 17.2422C16.2673 17.7667 16.693 18.1936 17.2187 18.1936H20.8644C21.3901 18.1936 21.817 17.7667 21.817 17.2288C21.817 16.7056 21.3901 16.2787 20.8644 16.2787Z" fill="#B7B7B7"/>
</svg>
