<svg width="60" height="45" viewBox="0 0 60 45" fill="none" xmlns="http://www.w3.org/2000/svg">
<path d="M30.8748 10.3413C31.7972 10.3413 32.6324 10.8536 33.0936 11.6098C33.318 11.9757 33.4675 12.427 33.4301 12.9027C33.4052 13.2686 33.5174 13.6346 33.7168 13.9761C34.3526 15.0129 35.7611 15.4032 36.858 14.8177C38.0921 14.1103 39.6502 14.5372 40.3607 15.7447L41.1959 17.184C41.9189 18.3915 41.52 19.9405 40.2735 20.6358C39.2139 21.2579 38.84 22.6361 39.4757 23.6851C39.6751 24.0144 39.8995 24.295 40.2485 24.4657C40.6848 24.6975 41.0214 25.0634 41.2582 25.4293C41.7194 26.1855 41.682 27.1125 41.2333 27.9297L40.3607 29.3934C39.8995 30.174 39.0394 30.6619 38.1544 30.6619C37.7181 30.6619 37.232 30.54 36.8331 30.296C36.509 30.0887 36.1351 30.0155 35.7362 30.0155C34.5021 30.0155 33.4675 31.0279 33.4301 32.2354C33.4301 33.6381 32.2834 34.7358 30.8499 34.7358H29.1546C27.7087 34.7358 26.5619 33.6381 26.5619 32.2354C26.537 31.0279 25.5024 30.0155 24.2683 30.0155C23.857 30.0155 23.483 30.0887 23.1714 30.296C22.7725 30.54 22.2739 30.6619 21.8501 30.6619C20.9526 30.6619 20.0925 30.174 19.6313 29.3934L18.7712 27.9297C18.31 27.1369 18.2851 26.1855 18.7463 25.4293C18.9457 25.0634 19.3197 24.6975 19.7435 24.4657C20.0925 24.295 20.3169 24.0144 20.5288 23.6851C21.1521 22.6361 20.7781 21.2579 19.7186 20.6358C18.4845 19.9405 18.0856 18.3915 18.7962 17.184L19.6313 15.7447C20.3543 14.5372 21.9 14.1103 23.1465 14.8177C24.2309 15.4032 25.6395 15.0129 26.2752 13.9761C26.4746 13.6346 26.5868 13.2686 26.5619 12.9027C26.537 12.427 26.6741 11.9757 26.9109 11.6098C27.3721 10.8536 28.2073 10.3657 29.1172 10.3413H30.8748ZM30.0147 19.0989C28.0577 19.0989 26.4746 20.6358 26.4746 22.5508C26.4746 24.4657 28.0577 25.9904 30.0147 25.9904C31.9717 25.9904 33.5174 24.4657 33.5174 22.5508C33.5174 20.6358 31.9717 19.0989 30.0147 19.0989Z" fill="#B7B7B7"/>
</svg>
