<svg width="44" height="44" viewBox="0 0 44 44" fill="none" xmlns="http://www.w3.org/2000/svg">
<path d="M21.9378 25.0893C26.1229 25.0893 29.6964 25.7528 29.6964 28.4079C29.6964 31.0618 26.1459 31.7495 21.9378 31.7495C17.7527 31.7495 14.1792 31.086 14.1792 28.432C14.1792 25.777 17.7298 25.0893 21.9378 25.0893ZM28.6293 23.4906C30.2293 23.4609 31.9494 23.6806 32.585 23.8366C33.9316 24.1013 34.8174 24.6418 35.1843 25.4272C35.4945 26.072 35.4945 26.8201 35.1843 27.4638C34.623 28.6821 32.8133 29.0731 32.11 29.1742C31.9647 29.1962 31.8478 29.0698 31.8631 28.9237C32.2224 25.5481 29.3643 23.9476 28.6249 23.5796C28.5932 23.5631 28.5867 23.5378 28.59 23.5224C28.5921 23.5115 28.6053 23.4939 28.6293 23.4906ZM15.0702 23.4883L15.3715 23.491C15.3955 23.4943 15.4076 23.5119 15.4097 23.5218C15.413 23.5383 15.4065 23.5624 15.3759 23.58C14.6354 23.948 11.7773 25.5485 12.1366 28.9231C12.1519 29.0703 12.0361 29.1955 11.8908 29.1746C11.1875 29.0736 9.37782 28.6825 8.81645 27.4643C8.50519 26.8195 8.50519 26.0725 8.81645 25.4277C9.18341 24.6422 10.0681 24.1018 11.4147 23.8359C12.0514 23.6811 13.7704 23.4614 15.3715 23.491L15.0702 23.4883ZM21.9378 12.2339C24.7872 12.2339 27.072 14.5297 27.072 17.3968C27.072 20.2628 24.7872 22.5608 21.9378 22.5608C19.0884 22.5608 16.8036 20.2628 16.8036 17.3968C16.8036 14.5297 19.0884 12.2339 21.9378 12.2339ZM28.9078 13.0949C31.66 13.0949 33.8213 15.6994 33.0852 18.6005C32.5883 20.5537 30.7895 21.851 28.7855 21.7982C28.5845 21.7928 28.3868 21.7741 28.1957 21.7411C28.057 21.717 27.9871 21.5599 28.0657 21.4434C28.8302 20.312 29.266 18.951 29.266 17.49C29.266 15.9652 28.7898 14.5438 27.9631 13.3783C27.9369 13.342 27.9172 13.286 27.9434 13.2443C27.9653 13.2102 28.0057 13.1927 28.0439 13.1839C28.3224 13.1267 28.6085 13.0949 28.9078 13.0949ZM15.0914 13.0948C15.3906 13.0948 15.6768 13.1266 15.9564 13.1838C15.9935 13.1925 16.035 13.2112 16.0568 13.2442C16.082 13.2859 16.0634 13.3419 16.0372 13.3782C15.2104 14.5437 14.7342 15.9651 14.7342 17.4898C14.7342 18.9508 15.17 20.3119 15.9345 21.4433C16.0131 21.5598 15.9432 21.7168 15.8045 21.741C15.6123 21.7751 15.4157 21.7926 15.2148 21.7981C13.2107 21.8509 11.4119 20.5535 10.915 18.6004C10.1778 15.6993 12.3392 13.0948 15.0914 13.0948Z" fill="#B7B7B7"/>
</svg>
